<?xml version="1.0" encoding="utf-8"?>
<!-- Generator: Adobe Illustrator 26.0.2, SVG Export Plug-In . SVG Version: 6.00 Build 0)  -->
<svg version="1.1" id="Layer_1" xmlns="http://www.w3.org/2000/svg" xmlns:xlink="http://www.w3.org/1999/xlink" x="0px" y="0px"
	 viewBox="0 0 62 81" style="enable-background:new 0 0 62 81;" xml:space="preserve">
<style type="text/css">
	.st0{fill:#FFFFFF;}
	.st1{fill:none;stroke:#000000;stroke-width:2;stroke-linecap:round;stroke-linejoin:round;stroke-miterlimit:10;}
</style>
<g>
	<path d="M48.1,72.6L4.2,79c-1.5-0.2-2.7-1.5-2.7-3.1V5.3c0-1.9,1.7-3.4,3.6-3.1l44,6.5c1.5,0.2,2.7,1.5,2.7,3.1v57.7
		C51.7,71.4,50.2,72.2,48.1,72.6z"/>
	<path class="st0" d="M46.3,43.3L46.3,43.3c-0.9,0-1.6-0.7-1.6-1.6v-5.9c0-0.9,0.7-1.1,1.5-1.1h0.1c0.9,0.1,1.5,0.7,1.5,1.6v6
		C47.8,42.9,47,43.3,46.3,43.3z"/>
	<rect x="1.5" y="2" class="st1" width="59" height="76.9"/>
</g>
</svg>
