<?xml version="1.0" encoding="utf-8"?>
<!-- Generator: Adobe Illustrator 26.0.2, SVG Export Plug-In . SVG Version: 6.00 Build 0)  -->
<svg version="1.1" id="Layer_1" xmlns="http://www.w3.org/2000/svg" xmlns:xlink="http://www.w3.org/1999/xlink" x="0px" y="0px"
	 viewBox="0 0 62 81" style="enable-background:new 0 0 62 81;" xml:space="preserve">
<style type="text/css">
	.st0{fill:#FFFFFF;}
</style>
<path d="M60.5,79.9h-59c-0.6,0-1-0.4-1-1V2c0-0.6,0.4-1,1-1h59c0.6,0,1,0.4,1,1v76.9C61.5,79.5,61.1,79.9,60.5,79.9z"/>
<path class="st0" d="M54.1,45.9L54.1,45.9c-1,0-1.9-0.9-1.9-1.9v-7.1c0-1,0.9-1.9,1.9-1.9h0c1,0,1.9,0.9,1.9,1.9V44
	C56,45,55.1,45.9,54.1,45.9z"/>
</svg>
