<?xml version="1.0" encoding="utf-8"?>
<!-- Generator: Adobe Illustrator 26.0.2, SVG Export Plug-In . SVG Version: 6.00 Build 0)  -->
<svg version="1.1" id="Layer_1" xmlns="http://www.w3.org/2000/svg" xmlns:xlink="http://www.w3.org/1999/xlink" x="0px" y="0px"
	 viewBox="0 0 62 81" style="enable-background:new 0 0 62 81;" xml:space="preserve">
<style type="text/css">
	.st0{fill:#C62828;}
	.st1{fill:#FFFFFF;}
</style>
<g>
	<path d="M60.5,1h-59c-0.6,0-1,0.4-1,1v57.1c0.1-0.2,0.2-0.3,0.3-0.5c0.5-0.6,1.1-1,1.8-1.2l0-0.8c0.3-3.7,2.9-10.8,11.3-10.8
		c5.3,0,8,2.6,9.4,4.7c1.8,2.8,1.8,5.7,1.8,6c0,0.2,0,0.3,0,0.4v0.5c1.5,0.6,2.6,2,2.6,3.7V77c0,1.2-0.5,2.2-1.3,2.9h34
		c0.6,0,1-0.4,1-1V2C61.5,1.4,61.1,1,60.5,1z"/>
</g>
<g>
	<path class="st0" d="M4,59.6h19.8c0.9,0,1.5,0.7,1.5,1.5V77c0,0.9-0.7,1.5-1.5,1.5H4c-0.9,0-1.5-0.7-1.5-1.5V61.1
		C2.4,60.3,3.1,59.6,4,59.6z"/>
	<path class="st0" d="M13.9,48.2c-8.2,0-8.8,8.5-8.8,8.5v2.9h3.6v-2.9c0,0,0.1-4.7,5.1-4.7s5,4.7,5,4.7v2.9h3.8v-2.9
		C22.8,56.7,22.7,48.2,13.9,48.2z"/>
</g>
<path class="st1" d="M54.1,45.9L54.1,45.9c-1,0-1.9-0.9-1.9-1.9v-7.1c0-1,0.9-1.9,1.9-1.9h0c1,0,1.9,0.9,1.9,1.9V44
	C56,45,55.1,45.9,54.1,45.9z"/>
</svg>
